<svg width="24" height="24" viewBox="0 0 24 24" fill="none" xmlns="http://www.w3.org/2000/svg">
<path d="M2.5 12.0019V12C2.5 9.48044 3.50089 7.06408 5.28249 5.28249C6.16464 4.40033 7.21191 3.70056 8.36451 3.22314C9.5171 2.74572 10.7524 2.5 12 2.5C14.5196 2.5 16.9359 3.50089 18.7175 5.28249C20.4991 7.06408 21.5 9.48044 21.5 12C21.5 14.5196 20.4991 16.9359 18.7175 18.7175C16.9359 20.4991 14.5196 21.5 12 21.5H3H2.98948L2.97897 21.5004C2.87997 21.5046 2.78196 21.4793 2.69739 21.4276C2.61527 21.3775 2.54941 21.3048 2.50764 21.2182C2.47203 21.1293 2.4627 21.032 2.48084 20.9378C2.49944 20.8412 2.5461 20.7523 2.61497 20.6821C2.61528 20.6818 2.61559 20.6815 2.61591 20.6812L4.61355 18.6836L4.93477 18.3623L4.64574 18.0119C3.25081 16.3205 2.4917 14.1943 2.5 12.0019ZM5.05645 19.6464L4.20289 20.5H5.41H12V20L12.0004 20.5C13.9668 20.4985 15.8719 19.8152 17.391 18.5665C18.9102 17.3179 19.9494 15.5811 20.3316 13.6522C20.7138 11.7233 20.4154 9.72148 19.4872 7.98788C18.559 6.25429 17.0585 4.89615 15.2412 4.14485C13.424 3.39354 11.4025 3.29556 9.52107 3.8676C7.63967 4.43963 6.01481 5.64629 4.92332 7.28199C3.83183 8.91769 3.34124 10.8812 3.53513 12.8381C3.72899 14.7947 4.59513 16.6235 5.98602 18.0131C6.07875 18.1067 6.13079 18.2332 6.13079 18.365C6.13079 18.4969 6.07865 18.6235 5.98574 18.7172C5.98563 18.7173 5.98551 18.7174 5.9854 18.7175L5.05645 19.6464Z" fill="black" stroke="black"/>
</svg>
