<svg width="34" height="34" viewBox="0 0 34 34" fill="none" xmlns="http://www.w3.org/2000/svg">
<g clip-path="url(#clip0_2403_2)">
<path d="M24.0711 9.92886C20.182 6.03977 13.818 6.03977 9.92893 9.92886C6.03985 13.8179 6.03985 20.1819 9.92893 24.071C13.818 27.9601 20.182 27.9601 24.0711 24.071C27.9602 20.1819 27.9602 13.8179 24.0711 9.92886ZM17.9899 21.2426C17.9899 21.8082 17.5657 22.2325 17 22.2325C16.4343 22.2325 16.0101 21.8082 16.0101 21.2426V17.9899H12.7574C12.1917 17.9899 11.7674 17.5656 11.7674 16.9999C11.7674 16.4342 12.1917 16.01 12.7574 16.01H16.0101V12.7573C16.0101 12.1916 16.4343 11.7673 17 11.7673C17.5657 11.7673 17.9899 12.1916 17.9899 12.7573V16.01H21.2426C21.8083 16.01 22.2326 16.4342 22.2326 16.9999C22.2326 17.5656 21.8083 17.9899 21.2426 17.9899H17.9899V21.2426Z" fill="#CCCCCC"/>
</g>
<defs>
<clipPath id="clip0_2403_2">
<rect width="24" height="24" fill="white" transform="translate(17 0.0294189) rotate(45)"/>
</clipPath>
</defs>
</svg>
