<svg width="108" height="48" viewBox="0 0 108 48" fill="none" xmlns="http://www.w3.org/2000/svg">
<path d="M22 34.0999C22.1 33.5999 21.7 32.9999 21.2 32.9999L15.5 32.1999L12.9 26.9999C12.8 26.7999 12.7 26.6999 12.5 26.5999C12 26.2999 11.4 26.4999 11.1 26.9999L8.6 32.1999L2.9 32.9999C2.6 32.9999 2.4 33.0999 2.3 33.2999C1.9 33.6999 1.9 34.2999 2.3 34.6999L6.4 38.6999L5.4 44.3999C5.4 44.5999 5.4 44.7999 5.5 44.9999C5.8 45.4999 6.4 45.6999 6.9 45.3999L12 42.6999L17.1 45.3999C17.2 45.4999 17.4 45.4999 17.6 45.4999C17.7 45.4999 17.7 45.4999 17.8 45.4999C18.3 45.3999 18.7 44.8999 18.6 44.2999L17.6 38.5999L21.7 34.5999C21.9 34.4999 22 34.2999 22 34.0999Z" fill="#F2C166"/>
<path d="M43 34.0999C43.1 33.5999 42.7 32.9999 42.2 32.9999L36.5 32.1999L33.9 26.9999C33.8 26.7999 33.7 26.6999 33.5 26.5999C33 26.2999 32.4 26.4999 32.1 26.9999L29.6 32.1999L23.9 32.9999C23.6 32.9999 23.4 33.0999 23.3 33.2999C22.9 33.6999 22.9 34.2999 23.3 34.6999L27.4 38.6999L26.4 44.3999C26.4 44.5999 26.4 44.7999 26.5 44.9999C26.8 45.4999 27.4 45.6999 27.9 45.3999L33 42.6999L38.1 45.3999C38.2 45.4999 38.4 45.4999 38.6 45.4999C38.7 45.4999 38.7 45.4999 38.8 45.4999C39.3 45.3999 39.7 44.8999 39.6 44.2999L38.6 38.5999L42.7 34.5999C42.9 34.4999 43 34.2999 43 34.0999Z" fill="#F2C166"/>
<path d="M64 34.0999C64.1 33.5999 63.7 32.9999 63.2 32.9999L57.5 32.1999L54.9 26.9999C54.8 26.7999 54.7 26.6999 54.5 26.5999C54 26.2999 53.4 26.4999 53.1 26.9999L50.6 32.1999L44.9 32.9999C44.6 32.9999 44.4 33.0999 44.3 33.2999C43.9 33.6999 43.9 34.2999 44.3 34.6999L48.4 38.6999L47.4 44.3999C47.4 44.5999 47.4 44.7999 47.5 44.9999C47.8 45.4999 48.4 45.6999 48.9 45.3999L54 42.6999L59.1 45.3999C59.2 45.4999 59.4 45.4999 59.6 45.4999C59.7 45.4999 59.7 45.4999 59.8 45.4999C60.3 45.3999 60.7 44.8999 60.6 44.2999L59.6 38.5999L63.7 34.5999C63.9 34.4999 64 34.2999 64 34.0999Z" fill="#F2C166"/>
<path d="M85 34.0999C85.1 33.5999 84.7 32.9999 84.2 32.9999L78.5 32.1999L75.9 26.9999C75.8 26.7999 75.7 26.6999 75.5 26.5999C75 26.2999 74.4 26.4999 74.1 26.9999L71.6 32.1999L65.9 32.9999C65.6 32.9999 65.4 33.0999 65.3 33.2999C64.9 33.6999 64.9 34.2999 65.3 34.6999L69.4 38.6999L68.4 44.3999C68.4 44.5999 68.4 44.7999 68.5 44.9999C68.8 45.4999 69.4 45.6999 69.9 45.3999L75 42.6999L80.1 45.3999C80.2 45.4999 80.4 45.4999 80.6 45.4999C80.7 45.4999 80.7 45.4999 80.8 45.4999C81.3 45.3999 81.7 44.8999 81.6 44.2999L80.6 38.5999L84.7 34.5999C84.9 34.4999 85 34.2999 85 34.0999Z" fill="#F2C166"/>
<path d="M106 34.0999C106.1 33.5999 105.7 32.9999 105.2 32.9999L99.5 32.1999L96.9 26.9999C96.8 26.7999 96.7 26.6999 96.5 26.5999C96 26.2999 95.4 26.4999 95.1 26.9999L92.6 32.1999L86.9 32.9999C86.6 32.9999 86.4 33.0999 86.3 33.2999C85.9 33.6999 85.9 34.2999 86.3 34.6999L90.4 38.6999L89.4 44.3999C89.4 44.5999 89.4 44.7999 89.5 44.9999C89.8 45.4999 90.4 45.6999 90.9 45.3999L96 42.6999L101.1 45.3999C101.2 45.4999 101.4 45.4999 101.6 45.4999C101.7 45.4999 101.7 45.4999 101.8 45.4999C102.3 45.3999 102.7 44.8999 102.6 44.2999L101.6 38.5999L105.7 34.5999C105.9 34.4999 106 34.2999 106 34.0999Z" fill="#F2C166"/>
<path d="M22 10.0999C22.1 9.59994 21.7 8.99994 21.2 8.99994L15.5 8.19994L12.9 2.99994C12.8 2.79994 12.7 2.69994 12.5 2.59994C12 2.29994 11.4 2.49994 11.1 2.99994L8.6 8.19994L2.9 8.99994C2.6 8.99994 2.4 9.09994 2.3 9.29994C1.9 9.69994 1.9 10.2999 2.3 10.6999L6.4 14.6999L5.4 20.3999C5.4 20.5999 5.4 20.7999 5.5 20.9999C5.8 21.4999 6.4 21.6999 6.9 21.3999L12 18.6999L17.1 21.3999C17.2 21.4999 17.4 21.4999 17.6 21.4999C17.7 21.4999 17.7 21.4999 17.8 21.4999C18.3 21.3999 18.7 20.8999 18.6 20.2999L17.6 14.5999L21.7 10.5999C21.9 10.4999 22 10.2999 22 10.0999Z" fill="#E5E5E5"/>
<path d="M43 10.0999C43.1 9.59994 42.7 8.99994 42.2 8.99994L36.5 8.19994L33.9 2.99994C33.8 2.79994 33.7 2.69994 33.5 2.59994C33 2.29994 32.4 2.49994 32.1 2.99994L29.6 8.19994L23.9 8.99994C23.6 8.99994 23.4 9.09994 23.3 9.29994C22.9 9.69994 22.9 10.2999 23.3 10.6999L27.4 14.6999L26.4 20.3999C26.4 20.5999 26.4 20.7999 26.5 20.9999C26.8 21.4999 27.4 21.6999 27.9 21.3999L33 18.6999L38.1 21.3999C38.2 21.4999 38.4 21.4999 38.6 21.4999C38.7 21.4999 38.7 21.4999 38.8 21.4999C39.3 21.3999 39.7 20.8999 39.6 20.2999L38.6 14.5999L42.7 10.5999C42.9 10.4999 43 10.2999 43 10.0999Z" fill="#E5E5E5"/>
<path d="M64 10.0999C64.1 9.59994 63.7 8.99994 63.2 8.99994L57.5 8.19994L54.9 2.99994C54.8 2.79994 54.7 2.69994 54.5 2.59994C54 2.29994 53.4 2.49994 53.1 2.99994L50.6 8.19994L44.9 8.99994C44.6 8.99994 44.4 9.09994 44.3 9.29994C43.9 9.69994 43.9 10.2999 44.3 10.6999L48.4 14.6999L47.4 20.3999C47.4 20.5999 47.4 20.7999 47.5 20.9999C47.8 21.4999 48.4 21.6999 48.9 21.3999L54 18.6999L59.1 21.3999C59.2 21.4999 59.4 21.4999 59.6 21.4999C59.7 21.4999 59.7 21.4999 59.8 21.4999C60.3 21.3999 60.7 20.8999 60.6 20.2999L59.6 14.5999L63.7 10.5999C63.9 10.4999 64 10.2999 64 10.0999Z" fill="#E5E5E5"/>
<path d="M85 10.0999C85.1 9.59994 84.7 8.99994 84.2 8.99994L78.5 8.19994L75.9 2.99994C75.8 2.79994 75.7 2.69994 75.5 2.59994C75 2.29994 74.4 2.49994 74.1 2.99994L71.6 8.19994L65.9 8.99994C65.6 8.99994 65.4 9.09994 65.3 9.29994C64.9 9.69994 64.9 10.2999 65.3 10.6999L69.4 14.6999L68.4 20.3999C68.4 20.5999 68.4 20.7999 68.5 20.9999C68.8 21.4999 69.4 21.6999 69.9 21.3999L75 18.6999L80.1 21.3999C80.2 21.4999 80.4 21.4999 80.6 21.4999C80.7 21.4999 80.7 21.4999 80.8 21.4999C81.3 21.3999 81.7 20.8999 81.6 20.2999L80.6 14.5999L84.7 10.5999C84.9 10.4999 85 10.2999 85 10.0999Z" fill="#E5E5E5"/>
<path d="M106 10.0999C106.1 9.59994 105.7 8.99994 105.2 8.99994L99.5 8.19994L96.9 2.99994C96.8 2.79994 96.7 2.69994 96.5 2.59994C96 2.29994 95.4 2.49994 95.1 2.99994L92.6 8.19994L86.9 8.99994C86.6 8.99994 86.4 9.09994 86.3 9.29994C85.9 9.69994 85.9 10.2999 86.3 10.6999L90.4 14.6999L89.4 20.3999C89.4 20.5999 89.4 20.7999 89.5 20.9999C89.8 21.4999 90.4 21.6999 90.9 21.3999L96 18.6999L101.1 21.3999C101.2 21.4999 101.4 21.4999 101.6 21.4999C101.7 21.4999 101.7 21.4999 101.8 21.4999C102.3 21.3999 102.7 20.8999 102.6 20.2999L101.6 14.5999L105.7 10.5999C105.9 10.4999 106 10.2999 106 10.0999Z" fill="#E5E5E5"/>
</svg>
