<svg width="24" height="24" viewBox="0 0 24 24" fill="none" xmlns="http://www.w3.org/2000/svg">
<path d="M15.7105 12.7097C16.6909 11.9383 17.4065 10.8806 17.7577 9.68358C18.109 8.4866 18.0784 7.20991 17.6703 6.03111C17.2622 4.85231 16.4968 3.83003 15.4806 3.1065C14.4644 2.38296 13.2479 1.99414 12.0005 1.99414C10.753 1.99414 9.5366 2.38296 8.52042 3.1065C7.50423 3.83003 6.73883 4.85231 6.3307 6.03111C5.92257 7.20991 5.892 8.4866 6.24325 9.68358C6.5945 10.8806 7.31009 11.9383 8.29049 12.7097C6.61056 13.3827 5.14477 14.499 4.04938 15.9396C2.95398 17.3802 2.27005 19.091 2.07049 20.8897C2.05604 21.021 2.0676 21.1539 2.10451 21.2807C2.14142 21.4076 2.20295 21.5259 2.2856 21.629C2.45251 21.8372 2.69527 21.9705 2.96049 21.9997C3.2257 22.0289 3.49165 21.9515 3.69981 21.7846C3.90798 21.6177 4.04131 21.3749 4.07049 21.1097C4.29007 19.1549 5.22217 17.3495 6.68871 16.0385C8.15524 14.7275 10.0534 14.0027 12.0205 14.0027C13.9876 14.0027 15.8857 14.7275 17.3523 16.0385C18.8188 17.3495 19.7509 19.1549 19.9705 21.1097C19.9977 21.3554 20.1149 21.5823 20.2996 21.7467C20.4843 21.9111 20.7233 22.0012 20.9705 21.9997H21.0805C21.3426 21.9695 21.5822 21.837 21.7471 21.6309C21.9119 21.4249 21.9886 21.162 21.9605 20.8997C21.76 19.0959 21.0724 17.3807 19.9713 15.9379C18.8703 14.4951 17.3974 13.3792 15.7105 12.7097ZM12.0005 11.9997C11.2094 11.9997 10.436 11.7651 9.77821 11.3256C9.12041 10.886 8.60772 10.2613 8.30497 9.53037C8.00222 8.79947 7.923 7.9952 8.07735 7.21928C8.23169 6.44336 8.61265 5.73062 9.17206 5.17121C9.73147 4.6118 10.4442 4.23084 11.2201 4.0765C11.9961 3.92216 12.8003 4.00137 13.5312 4.30412C14.2621 4.60687 14.8868 5.11956 15.3264 5.77736C15.7659 6.43516 16.0005 7.20852 16.0005 7.99964C16.0005 9.06051 15.5791 10.078 14.8289 10.8281C14.0788 11.5783 13.0614 11.9997 12.0005 11.9997Z" fill="black"/>
</svg>
