<svg width="108" height="48" viewBox="0 0 108 48" fill="none" xmlns="http://www.w3.org/2000/svg">
<path d="M11.0489 26.9271C11.3483 26.0057 12.6517 26.0057 12.9511 26.9271L14.4697 31.6008C14.6035 32.0128 14.9875 32.2918 15.4207 32.2918H20.335C21.3037 32.2918 21.7065 33.5314 20.9228 34.1008L16.947 36.9894C16.5966 37.244 16.4499 37.6954 16.5838 38.1074L18.1024 42.7812C18.4017 43.7025 17.3472 44.4686 16.5635 43.8992L12.5878 41.0106C12.2373 40.756 11.7627 40.756 11.4122 41.0106L7.43648 43.8992C6.65276 44.4686 5.59828 43.7025 5.89763 42.7812L7.41623 38.1074C7.55011 37.6954 7.40345 37.244 7.05296 36.9894L3.07722 34.1008C2.29351 33.5314 2.69628 32.2918 3.66501 32.2918H8.57929C9.01252 32.2918 9.39647 32.0128 9.53035 31.6008L11.0489 26.9271Z" fill="#F2C166"/>
<path d="M32.0489 26.9271C32.3483 26.0057 33.6517 26.0057 33.9511 26.9271L35.4697 31.6008C35.6035 32.0128 35.9875 32.2918 36.4207 32.2918H41.335C42.3037 32.2918 42.7065 33.5314 41.9228 34.1008L37.947 36.9894C37.5966 37.244 37.4499 37.6954 37.5838 38.1074L39.1024 42.7812C39.4017 43.7025 38.3472 44.4686 37.5635 43.8992L33.5878 41.0106C33.2373 40.756 32.7627 40.756 32.4122 41.0106L28.4365 43.8992C27.6528 44.4686 26.5983 43.7025 26.8976 42.7812L28.4162 38.1074C28.5501 37.6954 28.4034 37.244 28.053 36.9894L24.0772 34.1008C23.2935 33.5314 23.6963 32.2918 24.665 32.2918H29.5793C30.0125 32.2918 30.3965 32.0128 30.5303 31.6008L32.0489 26.9271Z" fill="#F2C166"/>
<path d="M74.0489 26.9271C74.3483 26.0057 75.6517 26.0057 75.9511 26.9271L77.4697 31.6008C77.6035 32.0128 77.9875 32.2918 78.4207 32.2918H83.335C84.3037 32.2918 84.7065 33.5314 83.9228 34.1008L79.947 36.9894C79.5966 37.244 79.4499 37.6954 79.5838 38.1074L81.1024 42.7812C81.4017 43.7025 80.3472 44.4686 79.5635 43.8992L75.5878 41.0106C75.2373 40.756 74.7627 40.756 74.4122 41.0106L70.4365 43.8992C69.6528 44.4686 68.5983 43.7025 68.8976 42.7812L70.4162 38.1074C70.5501 37.6954 70.4034 37.244 70.053 36.9894L66.0772 34.1008C65.2935 33.5314 65.6963 32.2918 66.665 32.2918H71.5793C72.0125 32.2918 72.3965 32.0128 72.5303 31.6008L74.0489 26.9271Z" fill="#F2C166"/>
<path d="M53.0489 26.9271C53.3483 26.0057 54.6517 26.0057 54.9511 26.9271L56.4697 31.6008C56.6035 32.0128 56.9875 32.2918 57.4207 32.2918H62.335C63.3037 32.2918 63.7065 33.5314 62.9228 34.1008L58.947 36.9894C58.5966 37.244 58.4499 37.6954 58.5838 38.1074L60.1024 42.7812C60.4017 43.7025 59.3472 44.4686 58.5635 43.8992L54.5878 41.0106C54.2373 40.756 53.7627 40.756 53.4122 41.0106L49.4365 43.8992C48.6528 44.4686 47.5983 43.7025 47.8976 42.7812L49.4162 38.1074C49.5501 37.6954 49.4034 37.244 49.053 36.9894L45.0772 34.1008C44.2935 33.5314 44.6963 32.2918 45.665 32.2918H50.5793C51.0125 32.2918 51.3965 32.0128 51.5303 31.6008L53.0489 26.9271Z" fill="#F2C166"/>
<path d="M95.0489 26.9271C95.3483 26.0057 96.6517 26.0057 96.9511 26.9271L98.4697 31.6008C98.6035 32.0128 98.9875 32.2918 99.4207 32.2918H104.335C105.304 32.2918 105.706 33.5314 104.923 34.1008L100.947 36.9894C100.597 37.244 100.45 37.6954 100.584 38.1074L102.102 42.7812C102.402 43.7025 101.347 44.4686 100.564 43.8992L96.5878 41.0106C96.2373 40.756 95.7627 40.756 95.4122 41.0106L91.4365 43.8992C90.6528 44.4686 89.5983 43.7025 89.8976 42.7812L91.4162 38.1074C91.5501 37.6954 91.4034 37.244 91.053 36.9894L87.0772 34.1008C86.2935 33.5314 86.6963 32.2918 87.665 32.2918H92.5793C93.0125 32.2918 93.3965 32.0128 93.5303 31.6008L95.0489 26.9271Z" fill="#F2C166"/>
<path d="M11.0489 2.92705C11.3483 2.00574 12.6517 2.00574 12.9511 2.92705L14.4697 7.60081C14.6035 8.01284 14.9875 8.2918 15.4207 8.2918H20.335C21.3037 8.2918 21.7065 9.53141 20.9228 10.1008L16.947 12.9894C16.5966 13.244 16.4499 13.6954 16.5838 14.1074L18.1024 18.7812C18.4017 19.7025 17.3472 20.4686 16.5635 19.8992L12.5878 17.0106C12.2373 16.756 11.7627 16.756 11.4122 17.0106L7.43648 19.8992C6.65276 20.4686 5.59828 19.7025 5.89763 18.7812L7.41623 14.1074C7.55011 13.6954 7.40345 13.244 7.05296 12.9894L3.07722 10.1008C2.29351 9.53141 2.69628 8.2918 3.66501 8.2918H8.57929C9.01252 8.2918 9.39647 8.01284 9.53035 7.60081L11.0489 2.92705Z" fill="#E5E5E5"/>
<path d="M32.0489 2.92705C32.3483 2.00574 33.6517 2.00574 33.9511 2.92705L35.4697 7.60081C35.6035 8.01284 35.9875 8.2918 36.4207 8.2918H41.335C42.3037 8.2918 42.7065 9.53141 41.9228 10.1008L37.947 12.9894C37.5966 13.244 37.4499 13.6954 37.5838 14.1074L39.1024 18.7812C39.4017 19.7025 38.3472 20.4686 37.5635 19.8992L33.5878 17.0106C33.2373 16.756 32.7627 16.756 32.4122 17.0106L28.4365 19.8992C27.6528 20.4686 26.5983 19.7025 26.8976 18.7812L28.4162 14.1074C28.5501 13.6954 28.4034 13.244 28.053 12.9894L24.0772 10.1008C23.2935 9.53141 23.6963 8.2918 24.665 8.2918H29.5793C30.0125 8.2918 30.3965 8.01284 30.5303 7.60081L32.0489 2.92705Z" fill="#E5E5E5"/>
<path d="M74.0489 2.92705C74.3483 2.00574 75.6517 2.00574 75.9511 2.92705L77.4697 7.60081C77.6035 8.01284 77.9875 8.2918 78.4207 8.2918H83.335C84.3037 8.2918 84.7065 9.53141 83.9228 10.1008L79.947 12.9894C79.5966 13.244 79.4499 13.6954 79.5838 14.1074L81.1024 18.7812C81.4017 19.7025 80.3472 20.4686 79.5635 19.8992L75.5878 17.0106C75.2373 16.756 74.7627 16.756 74.4122 17.0106L70.4365 19.8992C69.6528 20.4686 68.5983 19.7025 68.8976 18.7812L70.4162 14.1074C70.5501 13.6954 70.4034 13.244 70.053 12.9894L66.0772 10.1008C65.2935 9.53141 65.6963 8.2918 66.665 8.2918H71.5793C72.0125 8.2918 72.3965 8.01284 72.5303 7.60081L74.0489 2.92705Z" fill="#E5E5E5"/>
<path d="M53.0489 2.92705C53.3483 2.00574 54.6517 2.00574 54.9511 2.92705L56.4697 7.60081C56.6035 8.01284 56.9875 8.2918 57.4207 8.2918H62.335C63.3037 8.2918 63.7065 9.53141 62.9228 10.1008L58.947 12.9894C58.5966 13.244 58.4499 13.6954 58.5838 14.1074L60.1024 18.7812C60.4017 19.7025 59.3472 20.4686 58.5635 19.8992L54.5878 17.0106C54.2373 16.756 53.7627 16.756 53.4122 17.0106L49.4365 19.8992C48.6528 20.4686 47.5983 19.7025 47.8976 18.7812L49.4162 14.1074C49.5501 13.6954 49.4034 13.244 49.053 12.9894L45.0772 10.1008C44.2935 9.53141 44.6963 8.2918 45.665 8.2918H50.5793C51.0125 8.2918 51.3965 8.01284 51.5303 7.60081L53.0489 2.92705Z" fill="#E5E5E5"/>
<path d="M95.0489 2.92705C95.3483 2.00574 96.6517 2.00574 96.9511 2.92705L98.4697 7.60081C98.6035 8.01284 98.9875 8.2918 99.4207 8.2918H104.335C105.304 8.2918 105.706 9.53141 104.923 10.1008L100.947 12.9894C100.597 13.244 100.45 13.6954 100.584 14.1074L102.102 18.7812C102.402 19.7025 101.347 20.4686 100.564 19.8992L96.5878 17.0106C96.2373 16.756 95.7627 16.756 95.4122 17.0106L91.4365 19.8992C90.6528 20.4686 89.5983 19.7025 89.8976 18.7812L91.4162 14.1074C91.5501 13.6954 91.4034 13.244 91.053 12.9894L87.0772 10.1008C86.2935 9.53141 86.6963 8.2918 87.665 8.2918H92.5793C93.0125 8.2918 93.3965 8.01284 93.5303 7.60081L95.0489 2.92705Z" fill="#E5E5E5"/>
</svg>
