<svg width="50" height="50" viewBox="0 0 50 50" fill="none" xmlns="http://www.w3.org/2000/svg">
<rect width="50" height="50" rx="25" fill="#F2F2F2"/>
<g clip-path="url(#clip0_768_815)">
<path d="M31.3128 27.2059C32.9877 25.8952 34.2102 24.0982 34.8102 22.0645C35.4104 20.0308 35.3581 17.8617 34.6609 15.8589C33.9637 13.8561 32.6561 12.1192 30.9201 10.8899C29.184 9.66061 27.1057 9 24.9747 9C22.8434 9 20.7654 9.66061 19.0293 10.8899C17.2933 12.1192 15.9857 13.8561 15.2884 15.8589C14.5912 17.8617 14.539 20.0308 15.139 22.0645C15.7391 24.0982 16.9616 25.8952 18.6365 27.2059C15.7665 28.3493 13.2624 30.2459 11.391 32.6935C9.51966 35.1411 8.35124 38.0478 8.01031 41.1038C7.98562 41.3269 8.00537 41.5527 8.06843 41.7681C8.13149 41.9837 8.2366 42.1847 8.3778 42.3599C8.66295 42.7136 9.07768 42.9401 9.53078 42.9897C9.98386 43.0393 10.4382 42.9078 10.7938 42.6243C11.1495 42.3407 11.3772 41.9282 11.4271 41.4776C11.8022 38.1564 13.3946 35.089 15.9001 32.8615C18.4055 30.6341 21.6483 29.4027 25.0088 29.4027C28.3694 29.4027 31.6121 30.6341 34.1177 32.8615C36.623 35.089 38.2154 38.1564 38.5906 41.4776C38.637 41.8951 38.8373 42.2806 39.1528 42.5599C39.4683 42.8392 39.8767 42.9923 40.299 42.9897H40.4869C40.9347 42.9384 41.344 42.7133 41.6257 42.3631C41.9072 42.0131 42.0383 41.5665 41.9903 41.1208C41.6477 38.0561 40.4731 35.142 38.5919 32.6906C36.711 30.2393 34.1947 28.3433 31.3128 27.2059ZM24.9747 25.9996C23.6232 25.9996 22.3019 25.601 21.1781 24.8542C20.0544 24.1074 19.1785 23.046 18.6613 21.8042C18.144 20.5624 18.0087 19.1959 18.2724 17.8776C18.5361 16.5593 19.1869 15.3483 20.1426 14.3979C21.0983 13.4475 22.3159 12.8002 23.6414 12.538C24.9672 12.2757 26.341 12.4103 27.5897 12.9247C28.8384 13.4391 29.9056 14.3101 30.6566 15.4278C31.4075 16.5454 31.8082 17.8593 31.8082 19.2035C31.8082 21.0059 31.0883 22.7346 29.8067 24.009C28.5252 25.2836 26.7871 25.9996 24.9747 25.9996Z" fill="#999999"/>
</g>
<defs>
<clipPath id="clip0_768_815">
<rect width="34" height="34" fill="white" transform="translate(8 9)"/>
</clipPath>
</defs>
</svg>
